<svg version="1.1" xmlns="http://www.w3.org/2000/svg" xmlns:xlink="http://www.w3.org/1999/xlink">
  <defs>
    <symbol id="arrow-back-arrow" viewBox="0 0 50 50">
      <path
        d="M 13.082031 12.980469 C 12.492188 12.960938 11.925781 13.203125 11.53125 13.640625 L 1.023438 25 L 11.53125 36.359375 C 12.011719 36.894531 12.746094 37.132813 13.453125 36.976563 C 14.15625 36.820313 14.722656 36.296875 14.933594 35.605469 C 15.144531 34.914063 14.96875 34.164063 14.46875 33.640625 L 8.324219 27 L 47 27 C 47.722656 27.011719 48.390625 26.632813 48.753906 26.007813 C 49.121094 25.386719 49.121094 24.613281 48.753906 23.992188 C 48.390625 23.367188 47.722656 22.988281 47 23 L 8.324219 23 L 14.46875 16.359375 C 15.011719 15.785156 15.167969 14.949219 14.867188 14.21875 C 14.570313 13.492188 13.871094 13.003906 13.082031 12.980469 Z" />
    </symbol>
    <symbol id="arrow-expand-arrow" viewBox="0 0 50 50">
      <path d="M 4.84375 12.90625 L 2.75 15 L 25 37.25 L 47.25 15 L 45.15625 12.90625 L 25 33.0625 Z" />
    </symbol>
    <symbol id="arrow-first" viewBox="0 0 50 50">
      <g fill="#000000" fill-rule="nonzero" stroke="none" stroke-width="1" stroke-linecap="butt" stroke-linejoin="miter"
        stroke-miterlimit="10" stroke-dasharray="" stroke-dashoffset="0" font-family="none" font-weight="none"
        font-size="none" text-anchor="none" style="mix-blend-mode: normal">
        <g transform="translate(255.85236,256.00757) rotate(180) scale(5.12,5.12)">
          <path
            d="M36.9707,2.97266c-1.1038,0.01618 -1.9858,0.92353 -1.9707,2.02734v19.9707v20.0293c-0.0102,0.72127 0.36875,1.39216 0.99175,1.75578c0.623,0.36361 1.39351,0.36361 2.01651,0c0.623,-0.36361 1.00195,-1.0345 0.99175,-1.75578v-40c0.00739,-0.54026 -0.2041,-1.06052 -0.58634,-1.44239c-0.38224,-0.38187 -0.90271,-0.59286 -1.44296,-0.58495zM35,24.9707c-0.00778,-0.52023 -0.21796,-1.01695 -0.58594,-1.38477l-20,-20c-0.37701,-0.38755 -0.89487,-0.60596 -1.43555,-0.60547c-0.81349,0.00101 -1.54534,0.49459 -1.85108,1.24844c-0.30574,0.75385 -0.12447,1.61777 0.4585,2.18515l18.58594,18.58594l-18.58594,18.58594c-0.52248,0.50163 -0.73295,1.24653 -0.55024,1.94742c0.18271,0.70088 0.73006,1.24823 1.43094,1.43094c0.70088,0.18271 1.44578,-0.02776 1.94742,-0.55024l20,-20c0.38233,-0.38217 0.5937,-0.90283 0.58594,-1.44336z">
          </path>
        </g>
      </g>
    </symbol>
    <symbol id="arrow-last" viewBox="0 0 50 50">
      <path
        d="M 36.970703 2.9726562 A 2.0002 2.0002 0 0 0 35 5 L 35 24.970703 L 35 45 A 2.0002 2.0002 0 1 0 39 45 L 39 5 A 2.0002 2.0002 0 0 0 36.970703 2.9726562 z M 35 24.970703 A 2.0002 2.0002 0 0 0 34.414062 23.585938 L 14.414062 3.5859375 A 2.0002 2.0002 0 0 0 12.978516 2.9804688 A 2.0002 2.0002 0 0 0 11.585938 6.4140625 L 30.171875 25 L 11.585938 43.585938 A 2.0002 2.0002 0 1 0 14.414062 46.414062 L 34.414062 26.414062 A 2.0002 2.0002 0 0 0 35 24.970703 z" />
    </symbol>
    <symbol id="arrow-right-arrow" viewBox="0 0 50 50">
      <path
        d="M 14.980469 2.980469 C 14.164063 2.980469 13.433594 3.476563 13.128906 4.230469 C 12.820313 4.984375 13.003906 5.847656 13.585938 6.414063 L 32.171875 25 L 13.585938 43.585938 C 13.0625 44.085938 12.851563 44.832031 13.035156 45.535156 C 13.21875 46.234375 13.765625 46.78125 14.464844 46.964844 C 15.167969 47.148438 15.914063 46.9375 16.414063 46.414063 L 36.414063 26.414063 C 37.195313 25.632813 37.195313 24.367188 36.414063 23.585938 L 16.414063 3.585938 C 16.035156 3.199219 15.519531 2.980469 14.980469 2.980469 Z" />
    </symbol>
    <symbol id="three-dot" viewBox="0 0 50 50">
      <path
        d="M 8 20 C 4.6875 20 2 22.6875 2 26 C 2 29.3125 4.6875 32 8 32 C 11.3125 32 14 29.3125 14 26 C 14 22.6875 11.3125 20 8 20 Z M 25 20 C 21.6875 20 19 22.6875 19 26 C 19 29.3125 21.6875 32 25 32 C 28.3125 32 31 29.3125 31 26 C 31 22.6875 28.3125 20 25 20 Z M 42 20 C 38.6875 20 36 22.6875 36 26 C 36 29.3125 38.6875 32 42 32 C 45.3125 32 48 29.3125 48 26 C 48 22.6875 45.3125 20 42 20 Z" />
    </symbol>
    <symbol id="add" viewBox="0 0 30 30">
      <path
        d="M 14.970703 2.9726562 A 2.0002 2.0002 0 0 0 13 5 L 13 13 L 5 13 A 2.0002 2.0002 0 1 0 5 17 L 13 17 L 13 25 A 2.0002 2.0002 0 1 0 17 25 L 17 17 L 25 17 A 2.0002 2.0002 0 1 0 25 13 L 17 13 L 17 5 A 2.0002 2.0002 0 0 0 14.970703 2.9726562 z" />
    </symbol>
    <symbol id="close" viewBox="0 0 50 50">
      <path
        d="M 9.15625 6.3125 L 6.3125 9.15625 L 22.15625 25 L 6.21875 40.96875 L 9.03125 43.78125 L 25 27.84375 L 40.9375 43.78125 L 43.78125 40.9375 L 27.84375 25 L 43.6875 9.15625 L 40.84375 6.3125 L 25 22.15625 Z" />
    </symbol>
    <symbol id="grid-3" viewBox="0 0 24 24">
      <!-- Create the grid cells with white background and black border -->
      <rect width="24" height="24" fill="white" stroke="black" stroke-width="1" />
      <!-- Vertical Lines -->
      <path d="M8 0 V24" stroke="black" stroke-width="1" />
      <path d="M16 0 V24" stroke="black" stroke-width="1" />
      <!-- Horizontal Lines -->
      <path d="M0 8 H24" stroke="black" stroke-width="1" />
      <path d="M0 16 H24" stroke="black" stroke-width="1" />
    </symbol>
    <symbol id="grid-4" viewBox="0 0 24 24">
      <!-- Create the grid cells with white background and black border -->
      <rect width="24" height="24" fill="white" stroke="black" stroke-width="1" />
      <!-- Vertical Lines -->
      <path d="M6 0 V24" stroke="black" stroke-width="1" />
      <path d="M12 0 V24" stroke="black" stroke-width="1" />
      <path d="M18 0 V24" stroke="black" stroke-width="1" />
      <!-- Horizontal Lines -->
      <path d="M0 6 H24" stroke="black" stroke-width="1" />
      <path d="M0 12 H24" stroke="black" stroke-width="1" />
      <path d="M0 18 H24" stroke="black" stroke-width="1" />
    </symbol>
    <symbol id="grid-5" viewBox="0 0 24 24">
      <!-- Create the grid cells with white background and black border -->
      <rect width="24" height="24" fill="white" stroke="black" stroke-width="1" />
      <!-- Vertical Lines -->
      <path d="M5 0 V25" stroke="black" stroke-width="1" />
      <path d="M10 0 V25" stroke="black" stroke-width="1" />
      <path d="M15 0 V25" stroke="black" stroke-width="1" />
      <path d="M20 0 V25" stroke="black" stroke-width="1" />
      <!-- Horizontal Lines -->
      <path d="M0 5 H25" stroke="black" stroke-width="1" />
      <path d="M0 10 H25" stroke="black" stroke-width="1" />
      <path d="M0 15 H25" stroke="black" stroke-width="1" />
      <path d="M0 20 H25" stroke="black" stroke-width="1" />
    </symbol>
    <symbol id="grid-2" viewBox="0 0 24 24">
      <!-- Create the grid cells with white background and black border -->
      <rect width="24" height="24" fill="white" stroke="black" stroke-width="1" />
      <!-- Vertical Lines -->
      <path d="M12 0 V24" stroke="black" stroke-width="1" />
      <!-- Horizontal Lines -->
      <path d="M0 12 H24" stroke="black" stroke-width="1" />
    </symbol>
    <symbol id="refresh" viewBox="0 0 30 30">
      <path
        d="M 15 3 C 12.031398 3 9.3028202 4.0834384 7.2070312 5.875 A 1.0001 1.0001 0 1 0 8.5058594 7.3945312 C 10.25407 5.9000929 12.516602 5 15 5 C 20.19656 5 24.450989 8.9379267 24.951172 14 L 22 14 L 26 20 L 30 14 L 26.949219 14 C 26.437925 7.8516588 21.277839 3 15 3 z M 4 10 L 0 16 L 3.0507812 16 C 3.562075 22.148341 8.7221607 27 15 27 C 17.968602 27 20.69718 25.916562 22.792969 24.125 A 1.0001 1.0001 0 1 0 21.494141 22.605469 C 19.74593 24.099907 17.483398 25 15 25 C 9.80344 25 5.5490109 21.062074 5.0488281 16 L 8 16 L 4 10 z" />
    </symbol>
    <symbol id="sort" viewBox="0 0 128 128">
      <path
        d="M39 117c1.7 0 3-1.3 3-3V21.2l10.9 10.9c.6.6 1.4.9 2.1.9s1.5-.3 2.1-.9c1.2-1.2 1.2-3.1 0-4.2l-16-16c-1.2-1.2-3.1-1.2-4.2 0l-16 16c-1.2 1.2-1.2 3.1 0 4.2 1.2 1.2 3.1 1.2 4.2 0L36 21.2V114C36 115.7 37.3 117 39 117zM89 11c-1.7 0-3 1.3-3 3v92.8L75.1 95.9c-1.2-1.2-3.1-1.2-4.2 0-1.2 1.2-1.2 3.1 0 4.2l16 16c.6.6 1.4.9 2.1.9s1.5-.3 2.1-.9l16-16c1.2-1.2 1.2-3.1 0-4.2-1.2-1.2-3.1-1.2-4.2 0L92 106.8V14C92 12.3 90.7 11 89 11z" />
    </symbol>
    <symbol id="checked-box" viewBox="0 0 50 50">
      <path
        d="M 11 4 C 7.144531 4 4 7.144531 4 11 L 4 39 C 4 42.855469 7.144531 46 11 46 L 39 46 C 42.855469 46 46 42.855469 46 39 L 46 11 C 46 7.144531 42.855469 4 39 4 Z M 11 6 L 39 6 C 41.773438 6 44 8.226563 44 11 L 44 39 C 44 41.773438 41.773438 44 39 44 L 11 44 C 8.226563 44 6 41.773438 6 39 L 6 11 C 6 8.226563 8.226563 6 11 6 Z M 36.234375 15.832031 L 22.914063 31.554688 L 14.78125 23.96875 L 13.417969 25.433594 L 23.082031 34.449219 L 37.765625 17.125 Z" />
    </symbol>
    <symbol id="checked-circle" viewBox="0 0 48 48">
      <linearGradient id="I9GV0SozQFknxHSR6DCx5a" x1="9.858" x2="38.142" y1="9.858" y2="38.142"
        gradientUnits="userSpaceOnUse">
        <stop offset="0" stop-color="#21ad64" />
        <stop offset="1" stop-color="#088242" />
      </linearGradient>
      <path fill="url(#I9GV0SozQFknxHSR6DCx5a)"
        d="M44,24c0,11.045-8.955,20-20,20S4,35.045,4,24S12.955,4,24,4S44,12.955,44,24z" />
      <path
        d="M32.172,16.172L22,26.344l-5.172-5.172c-0.781-0.781-2.047-0.781-2.828,0l-1.414,1.414	c-0.781,0.781-0.781,2.047,0,2.828l8,8c0.781,0.781,2.047,0.781,2.828,0l13-13c0.781-0.781,0.781-2.047,0-2.828L35,16.172	C34.219,15.391,32.953,15.391,32.172,16.172z"
        opacity=".05" />
      <path
        d="M20.939,33.061l-8-8c-0.586-0.586-0.586-1.536,0-2.121l1.414-1.414c0.586-0.586,1.536-0.586,2.121,0	L22,27.051l10.525-10.525c0.586-0.586,1.536-0.586,2.121,0l1.414,1.414c0.586,0.586,0.586,1.536,0,2.121l-13,13	C22.475,33.646,21.525,33.646,20.939,33.061z"
        opacity=".07" />
      <path fill="#fff"
        d="M21.293,32.707l-8-8c-0.391-0.391-0.391-1.024,0-1.414l1.414-1.414c0.391-0.391,1.024-0.391,1.414,0	L22,27.758l10.879-10.879c0.391-0.391,1.024-0.391,1.414,0l1.414,1.414c0.391,0.391,0.391,1.024,0,1.414l-13,13	C22.317,33.098,21.683,33.098,21.293,32.707z" />
    </symbol>
    <symbol id="circle" viewBox="0 0 50 50">
      <path
        d="M 25 2 C 12.32114 2 2 12.32114 2 25 C 2 37.67886 12.32114 48 25 48 C 37.67886 48 48 37.67886 48 25 C 48 12.32114 37.67886 2 25 2 z M 25 6 C 35.5171 6 44 14.4829 44 25 C 44 35.5171 35.5171 44 25 44 C 14.4829 44 6 35.5171 6 25 C 6 14.4829 14.4829 6 25 6 z" />
    </symbol>
    <symbol id="delete" viewBox="0 0 64 64">
      <path
        d="M 28 6 C 25.791 6 24 7.791 24 10 L 24 12 L 23.599609 12 L 10 14 L 10 17 L 54 17 L 54 14 L 40.400391 12 L 40 12 L 40 10 C 40 7.791 38.209 6 36 6 L 28 6 z M 28 10 L 36 10 L 36 12 L 28 12 L 28 10 z M 12 19 L 14.701172 52.322266 C 14.869172 54.399266 16.605453 56 18.689453 56 L 45.3125 56 C 47.3965 56 49.129828 54.401219 49.298828 52.324219 L 51.923828 20 L 12 19 z M 20 26 C 21.105 26 22 26.895 22 28 L 22 51 L 19 51 L 18 28 C 18 26.895 18.895 26 20 26 z M 32 26 C 33.657 26 35 27.343 35 29 L 35 51 L 29 51 L 29 29 C 29 27.343 30.343 26 32 26 z M 44 26 C 45.105 26 46 26.895 46 28 L 45 51 L 42 51 L 42 28 C 42 26.895 42.895 26 44 26 z" />
    </symbol>
    <symbol id="edit" viewBox="0 0 24 24">
      <path
        d="M 19.171875 2 C 18.448125 2 17.724375 2.275625 17.171875 2.828125 L 16 4 L 20 8 L 21.171875 6.828125 C 22.275875 5.724125 22.275875 3.933125 21.171875 2.828125 C 20.619375 2.275625 19.895625 2 19.171875 2 z M 14.5 5.5 L 3 17 L 3 21 L 7 21 L 18.5 9.5 L 14.5 5.5 z" />
    </symbol>
    <symbol id="filter" viewBox="0 0 50 50">
      <path
        d="M 4 2 C 3.398438 2 3 2.398438 3 3 L 3 6 C 3 6.300781 3.113281 6.488281 3.3125 6.6875 L 19.3125 23.6875 C 19.511719 23.886719 19.800781 24 20 24 L 30 24 C 30.300781 24 30.488281 23.886719 30.6875 23.6875 L 46.6875 6.6875 C 46.886719 6.488281 47 6.300781 47 6 L 47 3 C 47 2.398438 46.601563 2 46 2 Z M 19 26 L 19 41 C 19 41.398438 19.199219 41.707031 19.5 41.90625 L 29.5 47.90625 C 29.601563 48.007813 29.800781 48 30 48 C 30.199219 48 30.300781 48.007813 30.5 47.90625 C 30.800781 47.707031 31 47.398438 31 47 L 31 26 Z" />
    </symbol>
    <symbol id="folder" viewBox="0 0 48 48">
      <path fill="#FFA000" d="M40,12H22l-4-4H8c-2.2,0-4,1.8-4,4v8h40v-4C44,13.8,42.2,12,40,12z" />
      <path fill="#FFCA28"
        d="M40,12H8c-2.2,0-4,1.8-4,4v20c0,2.2,1.8,4,4,4h32c2.2,0,4-1.8,4-4V16C44,13.8,42.2,12,40,12z" />
    </symbol>
    <symbol id="location" viewBox="0 0 50 50">
      <path
        d="M 25 1 C 16.179688 1 9 8.179688 9 17 C 9 31.113281 23.628906 47.945313 24.25 48.65625 C 24.441406 48.875 24.710938 49 25 49 C 25.308594 48.980469 25.558594 48.875 25.75 48.65625 C 26.371094 47.933594 41 30.8125 41 17 C 41 8.179688 33.820313 1 25 1 Z M 25 12 C 28.3125 12 31 14.6875 31 18 C 31 21.3125 28.3125 24 25 24 C 21.6875 24 19 21.3125 19 18 C 19 14.6875 21.6875 12 25 12 Z" />
    </symbol>
    <symbol id="muted-speaker" viewBox="0 0 512 512">
      <path
        d="m 113,333.572 147,95.21 V 83.217 L 113,178.425 Z M 48,183 H 97 V 329 H 48 Z m 413.9,13.6 a 8,8 0 0 0 -11.314,0 L 402.503,244.683 354.421,196.6 a 8,8 0 1 0 -11.313,11.314 L 391.191,256 343.108,304.083 a 8.0009134,8.0009134 0 1 0 11.313,11.317 l 48.084,-48.083 48.083,48.083 A 8.0005599,8.0005599 0 0 0 461.9,304.083 L 413.819,256 461.9,207.917 a 8,8 0 0 0 0,-11.317 z" />
    </symbol>
    <symbol id="speaker" viewBox="0 0 50 50">
      <path
        d="M 24.1875 3 C 23.277344 3 22.332031 3.4375 21.5625 4.21875 L 9.9375 15.8125 C 9.296875 16.378906 9 17.476563 9 18.25 L 9 31.75 C 9 32.515625 9.316406 33.605469 9.90625 34.125 L 21.5 45.6875 C 22.554688 46.757813 23.527344 47 24.15625 47 C 25.824219 47 27 45.476563 27 43.3125 L 27 6.3125 C 27 4.035156 25.539063 3 24.1875 3 Z M 3 15.96875 C 1.324219 15.96875 -0.03125 17.324219 -0.03125 19 L -0.03125 31 C -0.03125 32.675781 1.324219 34.03125 3 34.03125 L 7.46875 34.03125 C 7.140625 33.246094 7 32.410156 7 31.75 L 7 18.25 C 7 17.59375 7.164063 16.761719 7.5 15.96875 Z M 30.53125 18.40625 C 30.046875 18.464844 29.679688 18.863281 29.65625 19.351563 C 29.632813 19.835938 29.960938 20.269531 30.4375 20.375 C 32.484375 20.910156 34 22.777344 34 25 C 34 27.222656 32.484375 29.089844 30.4375 29.625 C 29.902344 29.761719 29.582031 30.308594 29.71875 30.84375 C 29.855469 31.378906 30.402344 31.699219 30.9375 31.5625 C 33.851563 30.800781 36 28.136719 36 25 C 36 21.863281 33.847656 19.199219 30.9375 18.4375 C 30.804688 18.398438 30.667969 18.390625 30.53125 18.40625 Z" />
    </symbol>
    <symbol id="timer" viewBox="0 0 24 24">
      <path
        d="M20,12h2c0,5.514-4.486,10-10,10S2,17.514,2,12S6.486,2,12,2c3.691,0,6.915,2.016,8.647,5h-2.412 C16.768,5.174,14.52,4,12,4c-4.411,0-8,3.589-8,8s3.589,8,8,8S20,16.411,20,12z" />
      <path d="M16 9L22 9 22 3zM8.293 14.293L9.707 15.707 13 12.414 13 6 11 6 11 11.586z" />
    </symbol>
    <symbol id="unchecked-box" viewBox="0 0 50 50">
      <path
        d="M 39 4 L 11 4 C 7.101563 4 4 7.101563 4 11 L 4 39 C 4 42.898438 7.101563 46 11 46 L 39 46 C 42.898438 46 46 42.898438 46 39 L 46 11 C 46 7.101563 42.898438 4 39 4 Z M 42 39 C 42 40.699219 40.699219 42 39 42 L 11 42 C 9.300781 42 8 40.699219 8 39 L 8 11 C 8 9.300781 9.300781 8 11 8 L 39 8 C 40.699219 8 42 9.300781 42 11 Z" />
    </symbol>
    <symbol id="alert" viewBox="0 0 50 50">
      <path
        d="M 25 6 C 23.355469 6 22 7.355469 22 9 L 22 10.363281 C 17.171875 11.550781 14 15.613281 14 21.0625 L 14 28.863281 C 14 31.035156 12.71875 33.496094 11.980469 34.726563 L 10.167969 37.445313 C 9.964844 37.75 9.941406 38.148438 10.117188 38.472656 C 10.292969 38.796875 10.632813 39 11 39 L 39 39 C 39.367188 39 39.707031 38.796875 39.882813 38.472656 C 40.058594 38.148438 40.035156 37.753906 39.832031 37.445313 L 38.046875 34.765625 C 36.667969 32.472656 36 30.585938 36 29 L 36 21.199219 C 36 15.683594 32.828125 11.570313 28 10.371094 L 28 9 C 28 7.355469 26.644531 6 25 6 Z M 25 8 C 25.554688 8 26 8.445313 26 9 L 26 10.046875 C 25.671875 10.019531 25.339844 10 25 10 C 24.660156 10 24.328125 10.019531 24 10.046875 L 24 9 C 24 8.445313 24.445313 8 25 8 Z M 3.480469 9.476563 C 1.25 13.101563 0 17.417969 0 22 C 0 26.582031 1.25 30.898438 3.480469 34.523438 L 5.1875 33.476563 C 3.152344 30.167969 2 26.21875 2 22 C 2 17.78125 3.152344 13.832031 5.1875 10.523438 Z M 46.519531 9.476563 L 44.8125 10.523438 C 46.847656 13.832031 48 17.78125 48 22 C 48 26.21875 46.847656 30.167969 44.8125 33.476563 L 46.519531 34.523438 C 48.75 30.898438 50 26.582031 50 22 C 50 17.417969 48.75 13.101563 46.519531 9.476563 Z M 7.816406 12.140625 C 5.996094 15.082031 5 18.355469 5 22 C 5 25.671875 6.128906 29.046875 7.808594 31.847656 L 9.523438 30.816406 C 8.007813 28.285156 7 25.261719 7 22 C 7 18.710938 7.871094 15.851563 9.515625 13.191406 Z M 42.183594 12.140625 L 40.484375 13.191406 C 42.128906 15.851563 43 18.710938 43 22 C 43 25.261719 41.992188 28.285156 40.472656 30.816406 L 42.191406 31.847656 C 43.871094 29.046875 45 25.671875 45 22 C 45 18.355469 44.003906 15.082031 42.183594 12.140625 Z M 20.421875 41 C 21.199219 42.761719 22.953125 44 25 44 C 27.046875 44 28.800781 42.761719 29.578125 41 Z" />
    </symbol>
    <symbol id="dashboard" viewBox="0 0 128 128">
      <path
        d="M 24 18 C 16.8 18 11 23.8 11 31 L 11 87 C 11 88.7 12.3 90 14 90 C 15.7 90 17 88.7 17 87 L 17 31 C 17 27.1 20.1 24 24 24 L 104 24 C 107.9 24 111 27.1 111 31 L 111 87 C 111 88.7 112.3 90 114 90 C 115.7 90 117 88.7 117 87 L 117 31 C 117 23.8 111.2 18 104 18 L 24 18 z M 60 48 C 58.3 48 57 49.3 57 51 L 57 87 C 57 88.7 58.3 90 60 90 L 68 90 C 69.7 90 71 88.7 71 87 L 71 51 C 71 49.3 69.7 48 68 48 L 60 48 z M 83 58 C 81.3 58 80 59.3 80 61 L 80 87 C 80 88.7 81.3 90 83 90 L 91 90 C 92.7 90 94 88.7 94 87 L 94 61 C 94 59.3 92.7 58 91 58 L 83 58 z M 37 68 C 35.3 68 34 69.3 34 71 L 34 87 C 34 88.7 35.3 90 37 90 L 45 90 C 46.7 90 48 88.7 48 87 L 48 71 C 48 69.3 46.7 68 45 68 L 37 68 z M 4 98 C 2.3 98 1 99.3 1 101 L 1 104 C 1 111.2 6.8 117 14 117 L 114 117 C 121.2 117 127 111.2 127 104 L 127 101 C 127 99.3 125.7 98 124 98 L 4 98 z M 7 104 L 121 104 C 121 107.9 117.9 111 114 111 L 14 111 C 10.1 111 7 107.9 7 104 z" />
    </symbol>
    <symbol id="integration" viewBox="0 0 256 256">
      <defs>
        <clipPath id="clip-1">
          <path
            d="M0,256v-256h256v256zM107.07456,121.26062c0.85175,-1.97083 0.78025,-4.29294 -0.3637,-6.27621l-1.12219,-1.94597c-1.10976,-1.92421 -3.07438,-3.19561 -5.25349,-3.45051c-0.24558,-2.13248 -1.47035,-4.10953 -3.45362,-5.25659l-1.94597,-1.12219c-1.06313,-0.61239 -2.27237,-0.93879 -3.49714,-0.93879c-0.96366,0 -1.90866,0.20206 -2.77595,0.57819c-1.27762,-1.72526 -3.32928,-2.82569 -5.6203,-2.82569h-2.24439c-2.29102,0 -4.34267,1.10043 -5.6203,2.82569c-0.86729,-0.37303 -1.8123,-0.57509 -2.77595,-0.57509c-1.22478,0 -2.43401,0.32329 -3.49714,0.93879l-1.94597,1.12219c-1.98327,1.14395 -3.20805,3.12101 -3.45362,5.25349c-2.17911,0.2549 -4.14373,1.52942 -5.25349,3.45051l-1.12219,1.94597c-1.15017,1.98949 -1.21856,4.32713 -0.35127,6.30418c-1.73458,1.28384 -2.83502,3.31995 -2.83502,5.58921v2.24439c0,2.28791 1.10043,4.33646 2.82258,5.61719c-0.85175,1.97083 -0.78025,4.29294 0.3637,6.27621l1.12219,1.94597c1.10976,1.92421 3.07438,3.19561 5.25349,3.45051c0.24558,2.13248 1.47035,4.10953 3.45362,5.25659l1.94597,1.12219c1.06313,0.61239 2.27237,0.93879 3.49714,0.93879c0.96366,0 1.90866,-0.20206 2.77595,-0.57819c1.27762,1.72526 3.32928,2.82569 5.6203,2.82569h2.24439c2.29102,0 4.33957,-1.10043 5.6203,-2.82569c0.86729,0.37614 1.8123,0.57819 2.77595,0.57819c1.22478,0 2.43401,-0.32329 3.49714,-0.93568l1.94597,-1.12219c1.98327,-1.14395 3.20805,-3.12101 3.45362,-5.25659c2.17911,-0.2549 4.14373,-1.52631 5.25349,-3.45051l1.12219,-1.94597c1.14395,-1.98016 1.21545,-4.30537 0.3637,-6.27621c1.72526,-1.28384 2.82258,-3.33239 2.82258,-5.6203v-2.24439c0,-2.28791 -1.10043,-4.33646 -2.82258,-5.61719z"
            id="overlayBgMask" fill="none"></path>
        </clipPath>
      </defs>
      <g clip-path="url(#clip-1)" fill="none" fill-rule="nonzero" stroke="none" stroke-width="1" stroke-linecap="butt"
        stroke-linejoin="miter" stroke-miterlimit="10" stroke-dasharray="" stroke-dashoffset="0" font-family="none"
        font-weight="none" font-size="none" text-anchor="none" style="mix-blend-mode: normal">
        <g transform="scale(2.56,2.56)" fill="#FFFFFF">
          <path
            d="M76.667,63.334c-3.672,0 -6.992,1.484 -9.404,3.887l-15.485,-9.18c0.993,-2.488 1.556,-5.195 1.556,-8.041c0,-2.845 -0.563,-5.553 -1.559,-8.041l15.488,-9.18c2.412,2.402 5.732,3.887 9.404,3.887c7.366,0.001 13.333,-5.966 13.333,-13.333c0,-7.363 -5.967,-13.333 -13.333,-13.333c-7.363,0 -13.334,5.97 -13.334,13.333c0,1.289 0.241,2.506 0.58,3.685l-15.527,9.199c-3.972,-4.814 -9.987,-7.884 -16.719,-7.884c-11.967,0 -21.667,9.701 -21.667,21.667c0,11.969 9.7,21.666 21.667,21.666c6.731,0 12.747,-3.068 16.719,-7.883l15.527,9.201c-0.339,1.176 -0.58,2.396 -0.58,3.682c0,7.367 5.971,13.334 13.334,13.334c7.366,0 13.333,-5.967 13.333,-13.334c0,-7.363 -5.967,-13.332 -13.333,-13.332zM76.667,16.667c3.675,0 6.666,2.99 6.666,6.667c0,3.678 -2.991,6.667 -6.666,6.667c-3.676,-0.001 -6.667,-2.989 -6.667,-6.668c0,-3.676 2.991,-6.666 6.667,-6.666zM31.667,65c-8.271,0 -15,-6.729 -15,-15c0,-8.271 6.729,-15 15,-15c8.271,0 15,6.729 15,15c0,8.271 -6.729,15 -15,15zM76.667,83.334c-3.676,0 -6.667,-2.992 -6.667,-6.668c0,-3.674 2.991,-6.666 6.667,-6.666c3.675,0 6.666,2.992 6.666,6.666c0,3.676 -2.991,6.668 -6.666,6.668z">
          </path>
        </g>
      </g>
      <g fill="#FFFFFF" fill-rule="nonzero" stroke="none" stroke-width="1" stroke-linecap="butt" stroke-linejoin="miter"
        stroke-miterlimit="10" stroke-dasharray="" stroke-dashoffset="0" font-family="none" font-weight="none"
        font-size="none" text-anchor="none" style="mix-blend-mode: normal">
        <g transform="translate(60.16,106.24) scale(3.10857,3.10857)" id="overlay">
          <g>
            <path
              d="M14,7.361v-0.722c0,-0.127 -0.096,-0.234 -0.223,-0.248l-0.256,-0.028c-0.327,-0.036 -0.586,-0.283 -0.654,-0.605c-0.044,-0.209 -0.099,-0.415 -0.164,-0.616c-0.101,-0.313 -0.001,-0.655 0.264,-0.85l0.206,-0.152c0.103,-0.075 0.132,-0.216 0.068,-0.326l-0.361,-0.626c-0.064,-0.11 -0.2,-0.155 -0.317,-0.104l-0.24,0.106c-0.301,0.132 -0.648,0.048 -0.868,-0.196c-0.142,-0.157 -0.291,-0.307 -0.449,-0.449c-0.244,-0.22 -0.328,-0.567 -0.196,-0.868l0.105,-0.24c0.051,-0.117 0.006,-0.253 -0.104,-0.317l-0.626,-0.361c-0.11,-0.064 -0.251,-0.034 -0.327,0.068l-0.149,0.205c-0.195,0.265 -0.537,0.365 -0.85,0.264c-0.201,-0.065 -0.406,-0.12 -0.616,-0.164c-0.322,-0.067 -0.569,-0.326 -0.605,-0.653l-0.028,-0.256c-0.014,-0.127 -0.121,-0.223 -0.249,-0.223h-0.722c-0.128,0 -0.235,0.096 -0.249,0.223l-0.028,0.256c-0.036,0.327 -0.283,0.586 -0.605,0.653c-0.21,0.044 -0.415,0.099 -0.616,0.164c-0.313,0.101 -0.655,0.001 -0.85,-0.264l-0.152,-0.206c-0.075,-0.103 -0.216,-0.133 -0.326,-0.069l-0.626,0.361c-0.11,0.064 -0.155,0.2 -0.104,0.317l0.105,0.24c0.132,0.301 0.048,0.648 -0.196,0.868c-0.157,0.142 -0.307,0.292 -0.448,0.449c-0.22,0.244 -0.567,0.328 -0.868,0.196l-0.24,-0.106c-0.117,-0.05 -0.254,-0.005 -0.318,0.105l-0.361,0.626c-0.064,0.11 -0.034,0.251 0.068,0.326l0.206,0.152c0.265,0.195 0.365,0.537 0.264,0.85c-0.065,0.201 -0.12,0.406 -0.164,0.616c-0.066,0.322 -0.326,0.569 -0.653,0.605l-0.214,0.024c-0.169,0.018 -0.264,0.125 -0.264,0.253v0.722c0,0.128 0.096,0.235 0.223,0.249l0.256,0.028c0.327,0.036 0.586,0.283 0.654,0.605c0.044,0.209 0.099,0.415 0.164,0.616c0.101,0.313 0.001,0.655 -0.264,0.85l-0.207,0.152c-0.103,0.075 -0.132,0.216 -0.069,0.326l0.361,0.626c0.064,0.11 0.2,0.155 0.317,0.104l0.24,-0.106c0.301,-0.132 0.648,-0.048 0.868,0.196c0.142,0.157 0.291,0.307 0.449,0.449c0.244,0.22 0.328,0.567 0.196,0.868l-0.105,0.24c-0.051,0.117 -0.006,0.253 0.104,0.317l0.626,0.361c0.11,0.064 0.251,0.034 0.326,-0.068l0.151,-0.206c0.195,-0.265 0.537,-0.366 0.85,-0.264c0.201,0.065 0.406,0.12 0.616,0.164c0.322,0.067 0.569,0.326 0.605,0.654l0.028,0.256c0.015,0.126 0.122,0.222 0.25,0.222h0.722c0.127,0 0.234,-0.096 0.248,-0.223l0.028,-0.256c0.036,-0.327 0.283,-0.586 0.605,-0.654c0.209,-0.044 0.415,-0.099 0.616,-0.164c0.313,-0.101 0.655,-0.001 0.85,0.264l0.151,0.206c0.075,0.103 0.216,0.132 0.326,0.068l0.626,-0.361c0.11,-0.064 0.155,-0.2 0.104,-0.317l-0.105,-0.24c-0.132,-0.301 -0.048,-0.648 0.196,-0.868c0.157,-0.142 0.307,-0.291 0.449,-0.449c0.22,-0.244 0.567,-0.328 0.868,-0.196l0.24,0.106c0.117,0.051 0.253,0.006 0.317,-0.104l0.361,-0.626c0.064,-0.11 0.034,-0.251 -0.069,-0.326l-0.206,-0.152c-0.265,-0.195 -0.365,-0.537 -0.264,-0.85c0.065,-0.201 0.12,-0.406 0.164,-0.616c0.067,-0.322 0.327,-0.569 0.654,-0.605c0.093,-0.01 0.181,-0.02 0.256,-0.028c0.129,-0.013 0.224,-0.12 0.224,-0.248zM7,11c-2.209,0 -4,-1.791 -4,-4c0,-2.209 1.791,-4 4,-4c2.209,0 4,1.791 4,4c0,2.209 -1.791,4 -4,4zM8,7c0,0.552 -0.448,1 -1,1c-0.552,0 -1,-0.448 -1,-1c0,-0.552 0.448,-1 1,-1c0.552,0 1,0.448 1,1z">
            </path>
          </g>
        </g>
      </g>
    </symbol>
    <symbol id="licence-plate" viewBox="0 0 30 30">
      <path
        d="M26.206,12.559l-2.058-5.88C23.587,5.077,22.069,4,20.371,4H9.629C7.931,4,6.413,5.077,5.853,6.678l-2.058,5.88 C2.696,13.281,2,14.53,2,15.904V23c0,1.105,0.895,2,2,2s2-0.895,2-2v-1.261c0,0,5.281,0.261,9,0.261s9-0.261,9-0.261V23 c0,1.105,0.895,2,2,2s2-0.895,2-2v-7.096C28,14.53,27.303,13.281,26.206,12.559z M6.595,10.613l1.146-3.274 C8.022,6.537,8.779,6,9.629,6h10.742c0.85,0,1.607,0.537,1.888,1.339l1.146,3.274c0.18,0.515-0.249,1.034-0.788,0.947 C20.656,11.243,18.135,11,15,11c-3.135,0-5.656,0.243-7.617,0.56C6.844,11.647,6.415,11.128,6.595,10.613z M6.5,18 C5.672,18,5,17.328,5,16.5S5.672,15,6.5,15S8,15.672,8,16.5S7.328,18,6.5,18z M18,17h-6c-0.552,0-1-0.448-1-1c0-0.552,0.448-1,1-1h6 c0.552,0,1,0.448,1,1C19,16.552,18.552,17,18,17z M23.5,18c-0.828,0-1.5-0.672-1.5-1.5s0.672-1.5,1.5-1.5s1.5,0.672,1.5,1.5 S24.328,18,23.5,18z" />
    </symbol>
    <symbol id="node" viewBox="0 0 50 50">
      <path
        d="M 26 3 C 22.14 3 19 6.14 19 10 C 19 13.519553 21.613417 16.432051 25 16.919922 L 25 24.082031 C 22.282806 24.473703 20.065097 26.422634 19.294922 29 L 32.705078 29 C 31.934903 26.422634 29.717194 24.473703 27 24.082031 L 27 16.919922 C 30.386583 16.432051 33 13.519553 33 10 C 33 6.14 29.86 3 26 3 z M 10 26 C 8.897 26 8 26.897 8 28 L 8 29 L 15 29 L 15 28 C 15 26.897 14.103 26 13 26 L 10 26 z M 6 31 C 3.794 31 2 32.794 2 35 L 2 43 C 2 45.206 3.794 47 6 47 L 44 47 C 46.206 47 48 45.206 48 43 L 48 35 C 48 32.794 46.206 31 44 31 L 6 31 z" />
    </symbol>
    <symbol id="preset" viewBox="0 0 24 24">
      <polygon fill="#039BE5" points="12,24 16,19 13,19 13,14 11,14 11,19 8,19" />
      <polygon fill="#039BE5" points="0,12 5,16 5,13 10,13 10,11 5,11 5,8" />
      <polygon fill="#039BE5" points="24,12 19,8 19,11 14,11 14,13 19,13 19,16" />
      <polygon fill="#039BE5" points="12,0 8,5 11,5 11,10 13,10 13,5 16,5" />
      <linearGradient id="j1m957qILuulwanNYg8Ega" x1="2.143" x2="21.857" y1="7.404" y2="16.596"
        gradientUnits="userSpaceOnUse">
        <stop offset="0" stop-color="#fff" stop-opacity=".2" />
        <stop offset="1" stop-color="#fff" stop-opacity="0" />
      </linearGradient>
      <path fill="url(#j1m957qILuulwanNYg8Ega)"
        d="M13,14h-2v5H8l4,5l4-5h-3V14z M10,11H5V8l-5,4l5,4v-3h5V11z M24,12l-5-4v3h-5v2h5v3L24,12z M11,10h2 V5h3l-4-5L8,5h3V10z" />
    </symbol>
    <symbol id="report" viewBox="0 0 30 30">
      <path
        d="M 13.011719 4.9921875 C 12.459719 4.9921875 12.011719 5.4401875 12.011719 5.9921875 L 12.011719 22.992188 L 17.011719 22.992188 L 17.011719 5.9921875 C 17.011719 5.4401875 16.563719 4.9921875 16.011719 4.9921875 L 13.011719 4.9921875 z M 1.0117188 6.9921875 L 1.0117188 26.992188 L 26.011719 26.992188 L 26.011719 24.992188 L 3.0117188 24.992188 L 3.0117188 6.9921875 L 1.0117188 6.9921875 z M 20.011719 6.9921875 C 19.459719 6.9921875 19.011719 7.4401875 19.011719 7.9921875 L 19.011719 22.992188 L 24.011719 22.992188 L 24.011719 7.9921875 C 24.011719 7.4401875 23.563719 6.9921875 23.011719 6.9921875 L 20.011719 6.9921875 z M 6.0117188 10.992188 C 5.4597187 10.992188 5.0117188 11.440188 5.0117188 11.992188 L 5.0117188 22.992188 L 10.011719 22.992188 L 10.011719 11.992188 C 10.011719 11.440188 9.5637187 10.992188 9.0117188 10.992188 L 6.0117188 10.992188 z" />
    </symbol>
    <symbol id="rule" viewBox="0 0 64 64">
      <path
        d="M 8 7 L 8 19 L 20 19 L 20 7 L 8 7 z M 16.560547 10.025391 L 17.974609 11.439453 L 13 16.414062 L 10.011719 13.425781 L 11.425781 12.011719 L 13 13.585938 L 16.560547 10.025391 z M 28 11 L 28 15 L 56 15 L 56 11 L 28 11 z M 8 26 L 8 38 L 20 38 L 20 26 L 8 26 z M 16.560547 29.025391 L 17.974609 30.439453 L 13 35.414062 L 10.011719 32.425781 L 11.425781 31.011719 L 13 32.585938 L 16.560547 29.025391 z M 28 30 L 28 34 L 56 34 L 56 30 L 28 30 z M 8 45 L 8 57 L 20 57 L 20 45 L 8 45 z M 28 49 L 28 53 L 56 53 L 56 49 L 28 49 z" />
    </symbol>
    <symbol id="schedule" viewBox="0 0 50 50">
      <path
        d="M 14 0 C 12.089844 0 10.242188 0.320313 8.5 1.085938 C 8.164063 1.21875 7.925781 1.527344 7.882813 1.890625 C 7.835938 2.253906 7.992188 2.609375 8.289063 2.820313 C 8.582031 3.035156 8.972656 3.070313 9.300781 2.914063 C 10.757813 2.277344 12.3125 2 14 2 C 20.664063 2 26 7.335938 26 14 C 26 20.664063 20.664063 26 14 26 C 7.335938 26 2 20.664063 2 14 C 2 10.960938 3.164063 8.242188 5 6.085938 L 5 8.699219 C 4.996094 9.058594 5.183594 9.394531 5.496094 9.578125 C 5.808594 9.757813 6.191406 9.757813 6.503906 9.578125 C 6.816406 9.394531 7.003906 9.058594 7 8.699219 L 7 3 L 1.300781 3 C 0.941406 2.996094 0.605469 3.183594 0.421875 3.496094 C 0.242188 3.808594 0.242188 4.191406 0.421875 4.503906 C 0.605469 4.816406 0.941406 5.003906 1.300781 5 L 3.292969 5 C 1.285156 7.449219 0 10.554688 0 14 C 0 17.816406 1.527344 21.269531 4 23.796875 L 4 46 C 4 47.105469 4.894531 48 6 48 L 46 48 C 47.105469 48 48 47.105469 48 46 L 48 15 L 27.953125 15 C 27.980469 14.667969 28 14.335938 28 14 C 28 13.664063 27.972656 13.332031 27.949219 13 L 48 13 L 48 6 C 48 4.839844 47.160156 4 46 4 L 41 4 L 41 2 C 41 0.90625 40.09375 0 39 0 L 37 0 C 35.90625 0 35 0.90625 35 2 L 35 4 L 23.796875 4 C 21.269531 1.527344 17.816406 0 14 0 Z M 37 2 L 39 2 L 39 8 L 37 8 Z M 13.984375 4.984375 C 13.433594 4.996094 12.992188 5.449219 13 6 L 13 13.839844 C 12.96875 14.054688 13.003906 14.273438 13.109375 14.464844 C 13.199219 14.644531 13.34375 14.792969 13.519531 14.890625 L 17.402344 17.800781 C 17.84375 18.132813 18.46875 18.042969 18.800781 17.597656 C 19.132813 17.15625 19.042969 16.53125 18.597656 16.199219 L 15 13.5 L 15 6 C 15.003906 5.730469 14.898438 5.46875 14.707031 5.277344 C 14.515625 5.085938 14.253906 4.980469 13.984375 4.984375 Z M 27 21 L 32 21 L 32 26 L 27 26 Z M 34 21 L 39 21 L 39 26 L 34 26 Z M 25 22.644531 L 25 22.714844 L 24.859375 22.832031 C 24.910156 22.773438 24.953125 22.707031 25 22.644531 Z M 13 28 L 18 28 L 18 33 L 13 33 Z M 20 28 L 25 28 L 25 33 L 20 33 Z M 27 28 L 32 28 L 32 33 L 27 33 Z M 34 28 L 39 28 L 39 33 L 34 33 Z M 13 35 L 18 35 L 18 40 L 13 40 Z M 20 35 L 25 35 L 25 40 L 20 40 Z M 27 35 L 32 35 L 32 40 L 27 40 Z M 34 35 L 39 35 L 39 40 L 34 40 Z" />
    </symbol>
    <symbol id="search" viewBox="0 0 50 50">
      <path
        d="M 21 3 C 11.621094 3 4 10.621094 4 20 C 4 29.378906 11.621094 37 21 37 C 24.710938 37 28.140625 35.804688 30.9375 33.78125 L 44.09375 46.90625 L 46.90625 44.09375 L 33.90625 31.0625 C 36.460938 28.085938 38 24.222656 38 20 C 38 10.621094 30.378906 3 21 3 Z M 21 5 C 29.296875 5 36 11.703125 36 20 C 36 28.296875 29.296875 35 21 35 C 12.703125 35 6 28.296875 6 20 C 6 11.703125 12.703125 5 21 5 Z" />
    </symbol>
    <symbol id="setting" viewBox="0 0 50 50">
      <path
        d="M47.16,21.221l-5.91-0.966c-0.346-1.186-0.819-2.326-1.411-3.405l3.45-4.917c0.279-0.397,0.231-0.938-0.112-1.282 l-3.889-3.887c-0.347-0.346-0.893-0.391-1.291-0.104l-4.843,3.481c-1.089-0.602-2.239-1.08-3.432-1.427l-1.031-5.886 C28.607,2.35,28.192,2,27.706,2h-5.5c-0.49,0-0.908,0.355-0.987,0.839l-0.956,5.854c-1.2,0.345-2.352,0.818-3.437,1.412l-4.83-3.45 c-0.399-0.285-0.942-0.239-1.289,0.106L6.82,10.648c-0.343,0.343-0.391,0.883-0.112,1.28l3.399,4.863 c-0.605,1.095-1.087,2.254-1.438,3.46l-5.831,0.971c-0.482,0.08-0.836,0.498-0.836,0.986v5.5c0,0.485,0.348,0.9,0.825,0.985 l5.831,1.034c0.349,1.203,0.831,2.362,1.438,3.46l-3.441,4.813c-0.284,0.397-0.239,0.942,0.106,1.289l3.888,3.891 c0.343,0.343,0.884,0.391,1.281,0.112l4.87-3.411c1.093,0.601,2.248,1.078,3.445,1.424l0.976,5.861C21.3,47.647,21.717,48,22.206,48 h5.5c0.485,0,0.9-0.348,0.984-0.825l1.045-5.89c1.199-0.353,2.348-0.833,3.43-1.435l4.905,3.441 c0.398,0.281,0.938,0.232,1.282-0.111l3.888-3.891c0.346-0.347,0.391-0.894,0.104-1.292l-3.498-4.857 c0.593-1.08,1.064-2.222,1.407-3.408l5.918-1.039c0.479-0.084,0.827-0.5,0.827-0.985v-5.5C47.999,21.718,47.644,21.3,47.16,21.221z M25,32c-3.866,0-7-3.134-7-7c0-3.866,3.134-7,7-7s7,3.134,7,7C32,28.866,28.866,32,25,32z" />
    </symbol>
    <symbol id="system" viewBox="0 0 50 50">
      <path
        d="M 16 0 L 16 12 L 34 12 L 34 0 Z M 24 14 L 24 22 L 6 22 L 6 33 L 8 33 L 8 24 L 24 24 L 24 33 L 26 33 L 26 24 L 42 24 L 42 33 L 44 33 L 44 22 L 26 22 L 26 14 Z M 0 35 L 0 47 L 14 47 L 14 35 Z M 18 35 L 18 47 L 32 47 L 32 35 Z M 36 35 L 36 47 L 50 47 L 50 35 Z" />
    </symbol>
    <symbol id="tour" viewBox="0 0 24 24">
      <path
        d="M 14 2 L 14 9 L 17.123047 5.8769531 C 18.873631 7.3427896 20 9.530617 20 12 L 20 13 L 22 13 L 22 12 C 22 8.9898617 20.651657 6.2962133 18.539062 4.4609375 L 21 2 L 14 2 z M 7.8652344 2.8398438 L 6.1347656 3.8398438 L 7.1347656 5.5722656 L 8.8652344 4.5722656 L 7.8652344 2.8398438 z M 3.8398438 6.1347656 L 2.8398438 7.8652344 L 4.5722656 8.8652344 L 5.5722656 7.1347656 L 3.8398438 6.1347656 z M 2 11 L 2 12 C 2 15.010138 3.3483428 17.703787 5.4609375 19.539062 L 3 22 L 10 22 L 10 15 L 6.8769531 18.123047 C 5.1263686 16.65721 4 14.469383 4 12 L 4 11 L 2 11 z M 19.427734 15.132812 L 18.427734 16.865234 L 20.160156 17.865234 L 21.160156 16.132812 L 19.427734 15.132812 z M 16.865234 18.427734 L 15.134766 19.427734 L 16.134766 21.160156 L 17.865234 20.160156 L 16.865234 18.427734 z" />
    </symbol>
    <symbol id="bicycle" viewBox="0 0 50 50">
      <path
        d="M 28.90625 8.96875 C 28.863281 8.976563 28.820313 8.988281 28.78125 9 C 28.40625 9.066406 28.105469 9.339844 28 9.703125 C 27.894531 10.070313 28.003906 10.460938 28.28125 10.71875 C 28.78125 11.21875 29.417969 11.71875 30.34375 11.875 C 31.097656 12 32.453125 11.96875 34.125 11.96875 C 34.164063 12.226563 34.1875 12.472656 34.25 12.84375 C 34.382813 13.632813 34.585938 14.75 34.84375 16 L 17.625 16 L 16.125 13 C 16.183594 12.996094 16.253906 13 16.3125 13 C 18.914063 13 20 12.292969 20 11.59375 C 20 10.992188 19.488281 10.992188 18.6875 11.09375 L 12.3125 11.09375 C 11.210938 11.09375 11 11.601563 11 12.5 C 11 14.800781 12.367188 14.039063 14.125 13.4375 L 15.875 17 L 13.53125 21.65625 C 12.429688 21.234375 11.246094 21 10 21 C 4.488281 21 0 25.488281 0 31 C 0 36.511719 4.488281 41 10 41 C 15.175781 41 19.4375 37.046875 19.9375 32 L 24 32 C 24.203125 31.996094 24.398438 31.929688 24.5625 31.8125 C 24.582031 31.804688 24.605469 31.792969 24.625 31.78125 C 24.636719 31.769531 24.644531 31.761719 24.65625 31.75 C 24.675781 31.742188 24.699219 31.730469 24.71875 31.71875 C 24.71875 31.707031 24.71875 31.699219 24.71875 31.6875 C 24.730469 31.675781 24.738281 31.667969 24.75 31.65625 C 24.785156 31.617188 24.816406 31.574219 24.84375 31.53125 L 35.53125 19.0625 C 35.730469 19.90625 35.972656 20.804688 36.21875 21.75 C 32.582031 23.25 30 26.832031 30 31 C 30 36.511719 34.488281 41 40 41 C 45.511719 41 50 36.511719 50 31 C 50 25.488281 45.511719 21 40 21 C 39.355469 21 38.734375 21.070313 38.125 21.1875 C 37.710938 19.566406 37.34375 18.046875 37.0625 16.75 C 36.679688 14.976563 36.386719 13.539063 36.21875 12.53125 C 36.132813 12.027344 36.101563 11.617188 36.0625 11.34375 C 36.042969 11.207031 36.007813 11.101563 36 11.03125 C 35.992188 10.960938 36 10.851563 36 11 C 36 10.449219 35.550781 10 35 10 C 32.5 10 31.230469 9.96875 30.65625 9.875 C 30.082031 9.78125 30.21875 9.78125 29.71875 9.28125 C 29.511719 9.058594 29.210938 8.945313 28.90625 8.96875 Z M 18.625 18 L 33.84375 18 L 24.21875 29.1875 Z M 17 19.25 L 22.375 30 L 19.9375 30 C 19.628906 26.867188 17.875 24.171875 15.34375 22.5625 Z M 10 23 C 10.933594 23 11.824219 23.144531 12.65625 23.4375 L 9.09375 30.5625 C 8.941406 30.875 8.960938 31.242188 9.148438 31.535156 C 9.332031 31.824219 9.652344 32.003906 10 32 L 17.9375 32 C 17.445313 35.953125 14.089844 39 10 39 C 5.570313 39 2 35.429688 2 31 C 2 26.570313 5.570313 23 10 23 Z M 40 23 C 44.429688 23 48 26.570313 48 31 C 48 35.429688 44.429688 39 40 39 C 35.570313 39 32 35.429688 32 31 C 32 27.742188 33.9375 24.96875 36.71875 23.71875 C 37.363281 26.050781 38.132813 28.597656 39.0625 31.3125 C 39.128906 31.703125 39.417969 32.015625 39.796875 32.113281 C 40.179688 32.210938 40.582031 32.078125 40.828125 31.769531 C 41.074219 31.460938 41.117188 31.039063 40.9375 30.6875 C 40.015625 27.992188 39.253906 25.441406 38.625 23.125 C 39.070313 23.046875 39.53125 23 40 23 Z M 14.4375 24.375 C 16.316406 25.632813 17.644531 27.644531 17.9375 30 L 11.625 30 Z" />
    </symbol>
    <symbol id="bus-side-view" viewBox="0 0 50 50">
      <path
        d="M 5.875 15.90625 C 2.640625 16.027344 0 18.679688 0 21.8125 L 0 42.1875 C 0 43.730469 1.269531 45 2.8125 45 L 5.09375 45 C 5.574219 47.832031 8.03125 50 11 50 C 13.96875 50 16.425781 47.832031 16.90625 45 L 33.09375 45 C 33.574219 47.832031 36.03125 50 39 50 C 41.96875 50 44.429688 47.832031 44.90625 45 L 45.3125 45 C 47.578125 45 50 43.640625 50 40.6875 L 50 32.8125 C 50 31.871094 49.800781 30.75 49.4375 29.65625 C 49.417969 29.609375 47.707031 24.882813 46.21875 21.3125 C 44.617188 17.359375 42.300781 15.90625 37.6875 15.90625 Z M 7.3125 21 L 13.6875 21 C 14.988281 21 16 22.011719 16 23.3125 L 16 27.6875 C 16 28.988281 14.988281 30 13.6875 30 L 7.3125 30 C 6.011719 30 5 28.988281 5 27.6875 L 5 23.3125 C 5 22.011719 6.011719 21 7.3125 21 Z M 22.3125 21 L 29.6875 21 C 30.988281 21 32 22.011719 32 23.3125 L 32 27.6875 C 32 28.988281 30.988281 30 29.6875 30 L 22.3125 30 C 21.011719 30 20 28.988281 20 27.6875 L 20 23.3125 C 20 22.011719 21.011719 21 22.3125 21 Z M 38.3125 21 L 43.875 21 C 44.050781 21.328125 44.214844 21.699219 44.375 22.09375 C 45.628906 25.097656 47.035156 28.90625 47.4375 30 L 38.3125 30 C 37.011719 30 36 28.988281 36 27.6875 L 36 23.3125 C 36 22.011719 37.011719 21 38.3125 21 Z M 11 40 C 13.207031 40 15 41.792969 15 44 C 15 44.347656 14.925781 44.679688 14.84375 45 C 14.398438 46.722656 12.859375 48 11 48 C 9.140625 48 7.601563 46.722656 7.15625 45 C 7.074219 44.679688 7 44.347656 7 44 C 7 41.792969 8.792969 40 11 40 Z M 39 40 C 41.207031 40 43 41.792969 43 44 C 43 44.347656 42.925781 44.679688 42.84375 45 C 42.398438 46.722656 40.859375 48 39 48 C 37.140625 48 35.601563 46.722656 35.15625 45 C 35.074219 44.679688 35 44.347656 35 44 C 35 41.792969 36.792969 40 39 40 Z" />
    </symbol>
    <symbol id="motocycle" viewBox="0 0 26 26">
      <path
        d="M 15.9375 3.4375 C 15.871094 3.449219 15.808594 3.472656 15.75 3.5 C 15.75 3.5 14.265625 4.019531 13.03125 5.03125 C 12.785156 5.183594 12.648438 5.464844 12.683594 5.753906 C 12.714844 6.042969 12.914063 6.285156 13.1875 6.378906 C 13.464844 6.472656 13.769531 6.398438 13.96875 6.1875 C 14.652344 5.625 15.152344 5.46875 15.59375 5.28125 C 15.679688 5.617188 15.859375 6.238281 16.125 7.0625 C 16.082031 7.074219 16.050781 7.09375 16 7.09375 C 9.699219 7.09375 10.804688 10.09375 9.90625 10.09375 C 7.707031 10.09375 6.898438 10.199219 6.5 9.5 C 5.898438 8.5 6.398438 8.09375 4 8.09375 C 0.601563 8.09375 0.1875 9.1875 0.1875 9.1875 C 0.1875 9.1875 0.304688 10.09375 1.40625 10.09375 C 5.707031 10.09375 7.113281 10.789063 8.3125 11.6875 C 8.507813 11.832031 8.679688 12 8.84375 12.1875 L 7.8125 12.78125 C 7.027344 11.824219 5.855469 11.1875 4.5 11.1875 C 2.101563 11.1875 0.1875 13.101563 0.1875 15.5 C 0.1875 17.898438 2.101563 19.8125 4.5 19.8125 C 6.589844 19.8125 8.3125 18.363281 8.71875 16.40625 L 10.375 16.40625 C 11.757813 17.65625 16.28125 17.140625 16.1875 16.09375 C 16.003906 13.691406 16.761719 11.601563 17.375 10.34375 C 17.6875 11.03125 18.0625 11.746094 18.46875 12.46875 C 18.058594 12.910156 17.71875 13.398438 17.5 13.90625 C 17.199219 14.707031 17.09375 15.90625 17.59375 15.90625 C 18.039063 15.90625 18.039063 15.457031 18.40625 14.84375 C 18.289063 15.210938 18.1875 15.59375 18.1875 16 C 18.1875 18.101563 19.898438 19.8125 22 19.8125 C 24.101563 19.8125 25.8125 18.101563 25.8125 16 C 25.8125 14.703125 25.148438 13.5625 24.15625 12.875 C 24.371094 12.886719 24.601563 12.90625 24.8125 12.90625 C 25.113281 12.90625 24.507813 11.09375 21.40625 11.09375 C 20.789063 11.09375 20.21875 11.253906 19.71875 11.5 C 19.277344 10.6875 18.90625 9.902344 18.5625 9.125 C 19.089844 9.136719 19.878906 9.054688 19.8125 8.3125 C 19.8125 7.710938 19.386719 6.40625 19.1875 5.90625 C 18.886719 5.105469 18.1875 5.09375 18.1875 5.09375 L 17.03125 5.09375 C 16.851563 4.503906 16.71875 4.03125 16.71875 4.03125 C 16.640625 3.667969 16.308594 3.414063 15.9375 3.4375 Z M 4.5 13.09375 C 5.140625 13.09375 5.71875 13.332031 6.15625 13.71875 L 4.25 14.8125 C 4.195313 14.835938 4.140625 14.871094 4.09375 14.90625 C 4.027344 14.9375 3.960938 14.980469 3.90625 15.03125 C 3.863281 15.058594 3.820313 15.089844 3.78125 15.125 C 3.78125 15.136719 3.78125 15.144531 3.78125 15.15625 C 3.769531 15.167969 3.761719 15.175781 3.75 15.1875 C 3.722656 15.246094 3.699219 15.308594 3.6875 15.375 C 3.59375 15.660156 3.664063 15.972656 3.875 16.1875 C 3.886719 16.1875 3.894531 16.1875 3.90625 16.1875 C 3.914063 16.207031 3.925781 16.230469 3.9375 16.25 C 3.949219 16.25 3.957031 16.25 3.96875 16.25 C 3.980469 16.261719 3.988281 16.269531 4 16.28125 C 4.011719 16.28125 4.019531 16.28125 4.03125 16.28125 C 4.039063 16.300781 4.050781 16.324219 4.0625 16.34375 C 4.074219 16.34375 4.082031 16.34375 4.09375 16.34375 C 4.132813 16.359375 4.175781 16.367188 4.21875 16.375 C 4.230469 16.375 4.238281 16.375 4.25 16.375 C 4.289063 16.390625 4.332031 16.398438 4.375 16.40625 C 4.386719 16.40625 4.394531 16.40625 4.40625 16.40625 C 4.4375 16.40625 4.46875 16.40625 4.5 16.40625 C 4.519531 16.40625 4.542969 16.40625 4.5625 16.40625 L 6.875 16.40625 C 6.550781 17.40625 5.621094 18.09375 4.5 18.09375 C 3.101563 18.09375 2 16.992188 2 15.59375 C 2 14.195313 3.101563 13.09375 4.5 13.09375 Z M 9.625 13.59375 C 9.78125 13.980469 9.941406 14.382813 10.03125 14.8125 L 8.75 14.8125 C 8.714844 14.597656 8.65625 14.390625 8.59375 14.1875 Z M 22 13.90625 C 23.199219 13.90625 24.1875 14.894531 24.1875 16.09375 C 24.1875 17.292969 23.199219 18.3125 22 18.3125 C 20.800781 18.3125 19.8125 17.292969 19.8125 16.09375 C 19.8125 15.707031 19.914063 15.351563 20.09375 15.03125 C 20.503906 15.578125 20.960938 16.113281 21.4375 16.625 C 21.722656 16.9375 22.203125 16.957031 22.515625 16.671875 C 22.828125 16.386719 22.847656 15.90625 22.5625 15.59375 C 22.109375 15.105469 21.679688 14.582031 21.28125 14.03125 C 21.511719 13.949219 21.746094 13.90625 22 13.90625 Z" />
    </symbol>
    <symbol id="pickup" viewBox="0 0 50 50">
      <path
        d="M 38.195313 30.019531 C 37.46875 29.855469 34.996094 27.28125 32.796875 24.394531 L 32.707031 24.292969 C 31.6875 23.269531 30.414063 22 28 22 L 19.011719 22 C 17.183594 22 16 23.136719 16 24.894531 L 16 30 L 4 30 C 1.496094 30 0 31.496094 0 34 L 0 42.308594 C 0 43.84375 1.289063 45 3 45 L 5.089844 45 C 5.570313 47.832031 8.03125 50 11 50 C 13.96875 50 16.429688 47.832031 16.910156 45 L 33.089844 45 C 33.570313 47.832031 36.03125 50 39 50 C 41.96875 50 44.433594 47.832031 44.910156 45 L 47 45 C 48.597656 45 50 43.597656 50 42 L 50 36 C 50 32.554688 40.167969 30.414063 38.195313 30.019531 Z M 31.246094 25.660156 C 32.058594 26.722656 33.53125 28.570313 34.984375 30 L 25 30 L 25 24 L 28 24 C 29.558594 24 30.3125 24.730469 31.246094 25.660156 Z M 18 24.894531 C 18 24.539063 18 24 19.011719 24 L 23 24 L 23 30 L 18 30 Z M 11 48 C 8.792969 48 7 46.207031 7 44 C 7 41.792969 8.792969 40 11 40 C 13.207031 40 15 41.792969 15 44 C 15 46.207031 13.207031 48 11 48 Z M 39 48 C 36.792969 48 35 46.207031 35 44 C 35 41.792969 36.792969 40 39 40 C 41.207031 40 43 41.792969 43 44 C 43 46.207031 41.207031 48 39 48 Z" />
    </symbol>
    <symbol id="semi-truck" viewBox="0 0 50 50">
      <path
        d="M 1 11 C 0.448 11 0 11.448 0 12 L 0 28 C 0 28.552 0.448 29 1 29 L 32 29 C 32.552 29 33 28.552 33 28 L 33 12 C 33 11.448 32.552 11 32 11 L 1 11 z M 37 15 C 35.9 15 35 15.9 35 17 L 35 29 C 35 30.1 34.1 31 33 31 L 25 31 L 21 31 L 21 35 C 21 35.275588 21.029018 35.546771 21.082031 35.806641 C 21.135166 36.066471 21.213629 36.317856 21.314453 36.556641 C 21.4154 36.795406 21.540271 37.02199 21.683594 37.234375 C 21.683594 37.234375 21.683594 37.236328 21.683594 37.236328 C 21.971055 37.661914 22.338086 38.028945 22.763672 38.316406 C 22.763672 38.316406 22.765625 38.316406 22.765625 38.316406 C 22.97801 38.459729 23.204594 38.5846 23.443359 38.685547 C 23.443359 38.685547 23.445312 38.685547 23.445312 38.685547 C 23.684097 38.786371 23.933529 38.864834 24.193359 38.917969 C 24.193359 38.917969 24.195312 38.917969 24.195312 38.917969 C 24.455182 38.970982 24.724412 39 25 39 C 25.275588 39 25.544818 38.970982 25.804688 38.917969 C 25.804688 38.917969 25.806641 38.917969 25.806641 38.917969 C 26.066155 38.864612 26.318006 38.786634 26.556641 38.685547 C 26.795261 38.584343 27.023968 38.459981 27.236328 38.316406 C 27.661043 38.029026 28.029026 37.65909 28.316406 37.234375 C 28.459729 37.02199 28.5846 36.793453 28.685547 36.554688 C 28.760487 36.377779 28.808333 36.188765 28.857422 36 L 39.130859 36 C 39.278569 36.624411 39.554741 37.223449 40.001953 37.726562 C 40.514408 38.303074 41.24077 38.730209 42.099609 38.908203 C 42.385889 38.967535 42.6875 39 43 39 C 44.25 39 45.314774 38.495244 45.998047 37.726562 C 46.445259 37.223449 46.721431 36.624411 46.869141 36 L 47 36 C 48.65 36 50 34.65 50 33 L 50 26.050781 C 50 24.540781 49.610625 23.040703 48.890625 21.720703 L 46.330078 17.070312 C 45.630078 15.790313 44.290078 15 42.830078 15 L 37 15 z M 41 19 L 45.109375 19 L 47.130859 22.679688 C 47.530859 23.399687 47.790156 24.19 47.910156 25 L 41 25 C 40.45 25 40 24.55 40 24 L 40 20 C 40 19.45 40.45 19 41 19 z M 2 31 L 2 35 C 2 35.27575 2.028668 35.544512 2.0820312 35.804688 C 2.0820312 35.804688 2.0820312 35.806641 2.0820312 35.806641 C 2.1353878 36.066155 2.2133658 36.316053 2.3144531 36.554688 C 2.3144531 36.554688 2.3144531 36.556641 2.3144531 36.556641 C 2.4156566 36.795261 2.5400185 37.022015 2.6835938 37.234375 C 2.6835938 37.234375 2.6835938 37.236328 2.6835938 37.236328 C 2.9710547 37.661914 3.3380859 38.028945 3.7636719 38.316406 C 3.7636719 38.316406 3.765625 38.316406 3.765625 38.316406 C 3.9780104 38.459729 4.2045935 38.5846 4.4433594 38.685547 C 4.4433594 38.685547 4.4453125 38.685547 4.4453125 38.685547 C 4.6840973 38.786371 4.933529 38.864834 5.1933594 38.917969 C 5.1933594 38.917969 5.1953125 38.917969 5.1953125 38.917969 C 5.4551817 38.970982 5.724412 39 6 39 C 6.275588 39 6.5448183 38.970982 6.8046875 38.917969 C 6.8046875 38.917969 6.8066406 38.917969 6.8066406 38.917969 C 7.0661549 38.864612 7.3180058 38.786634 7.5566406 38.685547 C 7.7952605 38.584343 8.0239684 38.459981 8.2363281 38.316406 C 8.661043 38.029026 9.0290258 37.65909 9.3164062 37.234375 C 9.4599815 37.022015 9.5843434 36.795261 9.6855469 36.556641 C 9.6855469 36.556641 9.6855469 36.554688 9.6855469 36.554688 C 9.7866342 36.316053 9.8646122 36.066155 9.9179688 35.806641 C 9.9179688 35.806641 9.9179688 35.804688 9.9179688 35.804688 C 9.971332 35.544512 10 35.27575 10 35 C 10 35.275588 10.029018 35.546771 10.082031 35.806641 C 10.135166 36.066471 10.213629 36.317856 10.314453 36.556641 C 10.4154 36.795406 10.540271 37.02199 10.683594 37.234375 C 10.683594 37.234375 10.683594 37.236328 10.683594 37.236328 C 10.971055 37.661914 11.338086 38.028945 11.763672 38.316406 C 11.763672 38.316406 11.765625 38.316406 11.765625 38.316406 C 11.97801 38.459729 12.204594 38.5846 12.443359 38.685547 C 12.443359 38.685547 12.445312 38.685547 12.445312 38.685547 C 12.684097 38.786371 12.933529 38.864834 13.193359 38.917969 C 13.193359 38.917969 13.195312 38.917969 13.195312 38.917969 C 13.455182 38.970982 13.724412 39 14 39 C 14.275588 39 14.544818 38.970982 14.804688 38.917969 C 14.804688 38.917969 14.806641 38.917969 14.806641 38.917969 C 15.066155 38.864612 15.318006 38.786634 15.556641 38.685547 C 15.795261 38.584343 16.023968 38.459981 16.236328 38.316406 C 16.661043 38.029026 17.029026 37.65909 17.316406 37.234375 C 17.459729 37.02199 17.5846 36.793453 17.685547 36.554688 C 17.786634 36.316053 17.864612 36.066155 17.917969 35.806641 C 17.917969 35.806641 17.917969 35.804688 17.917969 35.804688 C 17.971332 35.544512 18 35.27575 18 35 L 18 31 L 14 31 L 6 31 L 2 31 z M 6 33 C 7.1 33 8 33.9 8 35 C 8 36.1 7.1 37 6 37 C 4.9 37 4 36.1 4 35 C 4 34.862125 4.014334 34.727744 4.0410156 34.597656 C 4.2283203 33.688477 5.0375 33 6 33 z M 14 33 C 15.1 33 16 33.9 16 35 C 16 36.1 15.1 37 14 37 C 12.9 37 12 36.1 12 35 C 12 34.862125 12.014334 34.727744 12.041016 34.597656 C 12.22832 33.688477 13.0375 33 14 33 z M 25 33 C 26.1 33 27 33.9 27 35 C 27 36.1 26.1 37 25 37 C 23.9 37 23 36.1 23 35 C 23 34.862125 23.014334 34.727744 23.041016 34.597656 C 23.22832 33.688477 24.0375 33 25 33 z M 43 33 C 43.749999 33 44.185226 33.245244 44.501953 33.601562 C 44.81868 33.957881 45 34.472222 45 35 C 45 35.527778 44.81868 36.042119 44.501953 36.398438 C 44.185226 36.754756 43.749999 37 43 37 C 42.250001 37 41.814774 36.754756 41.498047 36.398438 C 41.18132 36.042119 41 35.527778 41 35 C 41 34.868056 41.011256 34.737381 41.033203 34.609375 C 41.099046 34.225358 41.260502 33.868802 41.498047 33.601562 C 41.814774 33.245244 42.250001 33 43 33 z" />
    </symbol>
    <symbol id="side-car" viewBox="0 0 30 30">
      <path
        d="M 12.984375 5.9863281 A 1.0001 1.0001 0 0 0 12.824219 6.0039062 C 11.499693 6.0084136 10.363416 6.0557205 9.5253906 6.1113281 A 1.0001 1.0001 0 0 0 9.5234375 6.1113281 C 8.208332 6.1991791 7.02557 6.935233 6.3554688 8.0644531 L 3.9609375 12.105469 L 1.5605469 12.648438 C 0.64854687 12.854438 -2.9605947e-16 13.664609 0 14.599609 L 0 18.433594 C 0 19.353594 0.62848438 20.155953 1.5214844 20.376953 L 3.2617188 20.804688 C 3.7835537 22.085755 5.0399277 23 6.5 23 C 7.8831519 23 9.0777003 22.175306 9.6445312 21 L 21.355469 21 C 21.9223 22.175306 23.116848 23 24.5 23 C 25.985955 23 27.257527 22.051297 27.761719 20.734375 L 28.623047 20.451172 C 29.445047 20.182172 30 19.414781 30 18.550781 L 30 15.095703 C 30 14.157703 29.349594 13.343578 28.433594 13.142578 C 27.22033 12.875944 25.449323 12.529334 23.685547 12.236328 L 20.642578 7.859375 C 19.946151 6.8580116 18.827458 6.2238435 17.605469 6.1503906 C 16.482699 6.0831998 14.845089 6.0094644 13.181641 6.0039062 A 1.0001 1.0001 0 0 0 12.984375 5.9863281 z M 12 8.0175781 L 12 12 L 6.3476562 12 L 8.0761719 9.0839844 C 8.4158948 8.5126083 8.9966744 8.1520546 9.65625 8.1074219 C 10.271156 8.066619 11.094424 8.0353523 12 8.0175781 z M 14 8.0195312 C 15.30991 8.0420793 16.577501 8.0922135 17.484375 8.1464844 C 18.092386 8.1830315 18.650427 8.4973634 19 9 A 1.0001 1.0001 0 0 0 19 9.0019531 L 21.085938 12 L 14 12 L 14 8.0195312 z M 6.5 18 C 7.3402718 18 8 18.659728 8 19.5 C 8 20.340272 7.3402718 21 6.5 21 C 5.6597282 21 5 20.340272 5 19.5 C 5 18.659728 5.6597282 18 6.5 18 z M 24.5 18 C 25.340272 18 26 18.659728 26 19.5 C 26 20.340272 25.340272 21 24.5 21 C 23.659728 21 23 20.340272 23 19.5 C 23 18.659728 23.659728 18 24.5 18 z" />
    </symbol>
    <symbol id="side-truck" viewBox="0 0 50 50">
      <path
        d="M 2.84375 13 C 1.273438 13 0 14.277344 0 15.84375 L 0 42 C 0 43.566406 1.429688 45 3 45 L 7.09375 45 C 7.570313 47.835938 10.03125 50 13 50 C 15.96875 50 18.429688 47.835938 18.90625 45 L 28.15625 45 C 29.722656 45 31 43.722656 31 42.15625 L 31 15.90625 C 31 14.304688 29.738281 13 28.1875 13 Z M 33 20 L 33 45 C 33.480469 47.832031 36.03125 50 39 50 C 41.96875 50 44.429688 47.832031 44.90625 45 L 47 45 C 48.570313 45 50 43.570313 50 42 L 50 32.375 C 50 30.363281 48.550781 28.308594 48.375 28.0625 L 44.21875 22.5 C 43.265625 21.351563 41.769531 20 40 20 Z M 38 25 L 43.59375 25 L 46.78125 29.25 C 47.121094 29.730469 48 31.203125 48 32.375 L 48 33 L 38 33 C 37 33 36 32 36 31 L 36 27 C 36 25.894531 37 25 38 25 Z M 13 40 C 15.207031 40 17 41.792969 17 44 C 17 46.207031 15.207031 48 13 48 C 10.792969 48 9 46.207031 9 44 C 9 41.792969 10.792969 40 13 40 Z M 39 40 C 41.207031 40 43 41.792969 43 44 C 43 46.207031 41.207031 48 39 48 C 36.792969 48 35 46.207031 35 44 C 35 41.792969 36.792969 40 39 40 Z" />
    </symbol>
    <symbol id="walking-person" viewBox="0 0 50 50">
      <path
        d="M 27.5 2 C 25.015625 2 23 4.015625 23 6.5 C 23 8.984375 25.015625 11 27.5 11 C 29.984375 11 32 8.984375 32 6.5 C 32 4.015625 29.984375 2 27.5 2 Z M 23.210938 13 C 22.332031 13 21.476563 13.289063 20.777344 13.824219 L 13.980469 18.28125 C 13.929688 18.3125 13.882813 18.34375 13.835938 18.375 L 13.824219 18.386719 C 13.519531 18.605469 13.285156 18.90625 13.144531 19.253906 L 13.136719 19.269531 L 10.3125 25.929688 C 10.109375 26.25 10 26.621094 10 27 C 10 28.105469 10.894531 29 12 29 C 12.910156 29 13.707031 28.378906 13.933594 27.5 L 16.480469 21.792969 L 21.042969 19.183594 C 20.386719 22.238281 19.15625 27.929688 19.15625 27.929688 L 19.15625 27.949219 C 19.066406 28.285156 19 28.632813 19 29 C 19 29.796875 19.238281 30.539063 19.640625 31.160156 L 19.644531 31.171875 L 19.65625 31.183594 C 19.886719 31.539063 20.183594 31.847656 20.515625 32.109375 L 25.113281 37.078125 L 27 45.542969 C 27.007813 45.878906 27.082031 46.207031 27.21875 46.515625 L 27.230469 46.5625 L 27.238281 46.558594 C 27.648438 47.4375 28.53125 48 29.5 48 C 30.878906 48 32 46.878906 32 45.5 C 32 45.105469 31.90625 44.714844 31.726563 44.363281 L 29.730469 35.351563 L 26 29.003906 L 28.855469 17.503906 C 28.855469 17.503906 28.855469 17.5 28.855469 17.5 C 28.949219 17.175781 29 16.839844 29 16.5 C 29 14.566406 27.433594 13 25.5 13 C 25.492188 13 25.484375 13 25.480469 13 C 25.476563 13 25.476563 13 25.472656 13 Z M 30.972656 16.828125 C 30.964844 16.984375 30.960938 17.136719 30.9375 17.285156 L 29.738281 22.167969 L 31.609375 24.238281 L 37.21875 25.84375 C 37.222656 25.84375 37.222656 25.84375 37.222656 25.84375 L 37.28125 25.863281 L 37.28125 25.859375 C 37.503906 25.949219 37.746094 26 38 26 C 39.105469 26 40 25.105469 40 24 C 40 23.125 39.433594 22.390625 38.65625 22.117188 L 38.65625 22.109375 L 33.667969 20.644531 Z M 18.441406 32.875 L 17.503906 37.578125 L 12.738281 43.722656 C 12.285156 44.175781 12 44.804688 12 45.5 C 12 46.882813 13.117188 48 14.5 48 C 15.417969 48 16.210938 47.5 16.644531 46.765625 L 16.65625 46.769531 L 21.625 40.292969 L 22.519531 36.941406 Z" />
    </symbol>
    <symbol id="video-camera-1" viewBox="0 0 256 256">
      <g fill="#FFFFFF" fill-rule="nonzero" stroke="none" stroke-width="1" stroke-linecap="butt" stroke-linejoin="miter"
        stroke-miterlimit="10" stroke-dasharray="" stroke-dashoffset="0" font-family="none" font-weight="none"
        font-size="none" text-anchor="none" style="mix-blend-mode: normal">
        <g transform="scale(10.66667,10.66667)">
          <path d="M23,5.919l-5,4v-4.919h-17v14h17v-4.919l5,4z"></path>
        </g>
      </g>
    </symbol>
    <symbol id="video-camera-2" viewBox="0 0 24 24">
      <path
        d="M 3 5 C 1.897 5 1 5.897 1 7 L 1 17 C 1 18.103 1.897 19 3 19 L 16 19 C 17.103 19 18 18.103 18 17 L 18 14.082031 L 21.375 16.78125 C 21.556 16.92525 21.777 17 22 17 C 22.147 17 22.295594 16.966391 22.433594 16.900391 C 22.780594 16.734391 23 16.384 23 16 L 23 8 C 23 7.616 22.780594 7.2646563 22.433594 7.0976562 C 22.087594 6.9326562 21.675 6.97875 21.375 7.21875 L 18 9.9179688 L 18 7 C 18 5.897 17.103 5 16 5 L 3 5 z" />
    </symbol>
    <symbol id="dom-camera" viewBox="0 0 24 24">
      <path
        d="M 3 5 C 1.897 5 1 5.897 1 7 L 1 17 C 1 18.103 1.897 19 3 19 L 16 19 C 17.103 19 18 18.103 18 17 L 18 14.082031 L 21.375 16.78125 C 21.556 16.92525 21.777 17 22 17 C 22.147 17 22.295594 16.966391 22.433594 16.900391 C 22.780594 16.734391 23 16.384 23 16 L 23 8 C 23 7.616 22.780594 7.2646563 22.433594 7.0976562 C 22.087594 6.9326562 21.675 6.97875 21.375 7.21875 L 18 9.9179688 L 18 7 C 18 5.897 17.103 5 16 5 L 3 5 z" />
    </symbol>
    <symbol id="fast-forward" viewBox="0 0 30 30">
      <path
        d="M 4 6 A 1 1 0 0 0 3 7 A 1 1 0 0 0 3 7.0039062 L 3 15 L 3 22.996094 A 1 1 0 0 0 3 23 A 1 1 0 0 0 4 24 A 1 1 0 0 0 4.5917969 23.804688 L 4.59375 23.804688 A 1 1 0 0 0 4.6210938 23.783203 L 15 16.236328 L 15 22.996094 A 1 1 0 0 0 15 23 A 1 1 0 0 0 16 24 A 1 1 0 0 0 16.591797 23.804688 L 16.59375 23.804688 A 1 1 0 0 0 16.621094 23.783203 L 27.541016 15.841797 A 1 1 0 0 0 28 15 A 1 1 0 0 0 27.556641 14.169922 L 16.59375 6.1953125 A 1 1 0 0 0 16 6 A 1 1 0 0 0 15 7 A 1 1 0 0 0 15 7.0039062 L 15 13.765625 L 4.59375 6.1953125 A 1 1 0 0 0 4 6 z" />
    </symbol>
    <symbol id="next" viewBox="0 0 30 30">
      <path
        d="M 7 6 A 1 1 0 0 0 6 7 A 1 1 0 0 0 6 7.0039062 L 6 15 L 6 22.996094 A 1 1 0 0 0 6 23 A 1 1 0 0 0 7 24 A 1 1 0 0 0 7.5917969 23.804688 L 7.59375 23.804688 A 1 1 0 0 0 7.6210938 23.783203 L 18.541016 15.841797 A 1 1 0 0 0 19 15 A 1 1 0 0 0 18.556641 14.169922 L 7.59375 6.1953125 A 1 1 0 0 0 7 6 z M 22.5 6 C 21.672 6 21 6.672 21 7.5 L 21 22.5 C 21 23.328 21.672 24 22.5 24 C 23.328 24 24 23.328 24 22.5 L 24 7.5 C 24 6.672 23.328 6 22.5 6 z" />
    </symbol>
    <symbol id="pause" viewBox="0 0 30 30">
      <path
        d="M 8 4 C 6.895 4 6 4.895 6 6 L 6 24 C 6 25.105 6.895 26 8 26 L 10 26 C 11.105 26 12 25.105 12 24 L 12 6 C 12 4.895 11.105 4 10 4 L 8 4 z M 20 4 C 18.895 4 18 4.895 18 6 L 18 24 C 18 25.105 18.895 26 20 26 L 22 26 C 23.105 26 24 25.105 24 24 L 24 6 C 24 4.895 23.105 4 22 4 L 20 4 z" />
    </symbol>
    <symbol id="play" viewBox="0 0 30 30">
      <path
        d="M 6 3 A 1 1 0 0 0 5 4 A 1 1 0 0 0 5 4.0039062 L 5 15 L 5 25.996094 A 1 1 0 0 0 5 26 A 1 1 0 0 0 6 27 A 1 1 0 0 0 6.5800781 26.8125 L 6.5820312 26.814453 L 26.416016 15.908203 A 1 1 0 0 0 27 15 A 1 1 0 0 0 26.388672 14.078125 L 6.5820312 3.1855469 L 6.5800781 3.1855469 A 1 1 0 0 0 6 3 z" />
    </symbol>
    <symbol id="previous" viewBox="0 0 50 50">
      <path d="M 34 5 L 12 26 L 34 47 Z" />
    </symbol>
    <symbol id="rewind" viewBox="0 0 30 30">
      <path
        d="M 14 6 A 1 1 0 0 0 13.408203 6.1953125 A 1 1 0 0 0 13.378906 6.2167969 L 2.4609375 14.15625 A 1 1 0 0 1 2.4589844 14.158203 L 2.4433594 14.169922 A 1 1 0 0 0 2 15 A 1 1 0 0 0 2.4492188 15.833984 L 13.40625 23.804688 A 1 1 0 0 0 14 24 A 1 1 0 0 0 15 23 A 1 1 0 0 0 15 22.996094 L 15 16.234375 L 25.40625 23.804688 A 1 1 0 0 0 26 24 A 1 1 0 0 0 27 23 A 1 1 0 0 0 27 22.996094 L 27 15 L 27 7.0039062 A 1 1 0 0 0 27 7 A 1 1 0 0 0 26 6 A 1 1 0 0 0 25.40625 6.1953125 A 1 1 0 0 0 25.378906 6.2167969 L 15 13.763672 L 15 7.0039062 A 1 1 0 0 0 15 7 A 1 1 0 0 0 14 6 z" />
    </symbol>
    <symbol id="post-action" viewBox="0 0 24 24">
      <g id="surface1">
        <path style="fill:white;stroke-width:1.4;stroke-linecap:round;stroke-linejoin:round;stroke:white;stroke-opacity:1;stroke-miterlimit:4;" d="M 14.5 16.5 L 16.113281 16.5 C 16.984375 16.5 17.792969 16.074219 18.289062 15.363281 L 21.632812 10.53125 C 21.859375 10.203125 21.890625 9.777344 21.710938 9.421875 C 21.367188 8.734375 20.445312 8.605469 19.925781 9.171875 L 17.273438 12.066406 C 16.207031 13.230469 14.53125 13.613281 13.0625 13.027344 L 9.441406 11.578125 C 8.539062 11.214844 7.515625 11.320312 6.710938 11.859375 L 2.871094 14.417969 C 2.375 14.75 2.199219 15.402344 2.46875 15.9375 C 2.761719 16.523438 3.476562 16.761719 4.0625 16.46875 L 7.246094 14.875 C 7.867188 14.566406 8.546875 15.179688 8.296875 15.828125 L 6.5 20.5 M 7 4 L 4 4 M 6 7 L 4 7 M 18 6.5 C 18 8.710938 16.210938 10.5 14 10.5 C 11.789062 10.5 10 8.710938 10 6.5 C 10 4.289062 11.789062 2.5 14 2.5 C 16.210938 2.5 18 4.289062 18 6.5 Z M 18 6.5 "/>
      </g>
    </symbol>
  </defs>
</svg>
